<svg xmlns="http://www.w3.org/2000/svg" width="512" height="512" viewBox="0 0 512 512" role="img" aria-label="Forma da orelha - pavilhão totalmente encurvado - 24 pontos">
  <rect x="8" y="8" width="496" height="496" rx="28" fill="#ffffff" stroke="#263238" stroke-width="4"/>
  <text x="256" y="46" text-anchor="middle" font-family="Arial, Helvetica, sans-serif" font-size="24" font-weight="700" fill="#263238">Forma da orelha</text>
  <text x="256" y="78" text-anchor="middle" font-family="Arial, Helvetica, sans-serif" font-size="18" fill="#455a64">pavilhão totalmente encurvado</text>
  <g stroke="#263238" stroke-width="7" fill="none" stroke-linecap="round" stroke-linejoin="round"><path d="M240 115 C180 145 160 210 170 270 C180 355 245 390 315 360"/>
      <path d="M260 150 C215 175 205 235 220 285"/><path d="M275 145 C345 155 365 230 320 270"/><path d="M300 165 C335 190 338 230 306 260"/><path d="M300 260 C267 285 260 315 295 330"/><path d="M305 195 C285 205 284 240 310 248"/><path d="M300 310 C350 288 368 235 352 190"/></g>
  <rect x="176" y="422" width="160" height="54" rx="16" fill="#f5f5f5" stroke="#263238" stroke-width="3"/>
  <text x="256" y="459" text-anchor="middle" font-family="Arial, Helvetica, sans-serif" font-size="28" font-weight="700" fill="#263238">24 pts</text>
  <text x="256" y="496" text-anchor="middle" font-family="Arial, Helvetica, sans-serif" font-size="12" fill="#607d8b">Capurro</text>
</svg>