<svg xmlns="http://www.w3.org/2000/svg" width="512" height="512" viewBox="0 0 512 512" role="img" aria-label="Textura da pele - grossa; marcas profundas - 20 pontos">
  <rect x="8" y="8" width="496" height="496" rx="28" fill="#ffffff" stroke="#263238" stroke-width="4"/>
  <text x="256" y="46" text-anchor="middle" font-family="Arial, Helvetica, sans-serif" font-size="24" font-weight="700" fill="#263238">Textura da pele</text>
  <text x="256" y="78" text-anchor="middle" font-family="Arial, Helvetica, sans-serif" font-size="18" fill="#455a64">grossa; marcas profundas</text>
  <g stroke="#263238" stroke-width="7" fill="none" stroke-linecap="round" stroke-linejoin="round"><rect x="110" y="150" width="292" height="190" rx="22" fill="none"/><path d="M135 175 C200 120 250 210 380 168" stroke-width="5"/><path d="M135 203 C200 158 250 235 380 198" stroke-width="5"/><path d="M135 231 C200 196 250 260 380 228" stroke-width="5"/><path d="M135 259 C200 234 250 285 380 258" stroke-width="5"/><path d="M135 287 C200 272 250 310 380 288" stroke-width="5"/><path d="M135 315 C200 310 250 335 380 318" stroke-width="5"/><path d="M170 160 L225 300 M305 155 L270 330 M360 205 L310 340" stroke-width="6"/></g>
  <rect x="176" y="422" width="160" height="54" rx="16" fill="#f5f5f5" stroke="#263238" stroke-width="3"/>
  <text x="256" y="459" text-anchor="middle" font-family="Arial, Helvetica, sans-serif" font-size="28" font-weight="700" fill="#263238">20 pts</text>
  <text x="256" y="496" text-anchor="middle" font-family="Arial, Helvetica, sans-serif" font-size="12" fill="#607d8b">Capurro</text>
</svg>