<svg xmlns="http://www.w3.org/2000/svg" width="360" height="260" viewBox="0 0 360 260" role="img" aria-label="Apgar - Tônus 2 pontos - Movimentos ativos">
  <rect x="8" y="8" width="344" height="244" rx="24" fill="#fffaf7" stroke="#3f3a3a" stroke-width="3"/>
  <rect x="8" y="8" width="344" height="58" rx="24" fill="#f1e7df"/>
  <text x="180" y="44" text-anchor="middle" font-family="Arial, sans-serif" font-size="22" font-weight="700" fill="#2f2a2a">Apgar - Tônus 2 pontos</text>
  <g transform="translate(70,78)"><circle cx="110" cy="38" r="22" fill="#ffe8d6" stroke="#2f2a2a" stroke-width="5"/><path d="M110 60 C108 88,108 112,110 136" stroke="#2f2a2a" stroke-width="8" fill="none"/><path d="M108 84 C80 64,60 76,44 58" stroke="#2f2a2a" stroke-width="7" fill="none" stroke-linecap="round"/><path d="M114 84 C142 64,162 76,178 58" stroke="#2f2a2a" stroke-width="7" fill="none" stroke-linecap="round"/><path d="M108 134 C88 114,68 126,50 108" stroke="#2f2a2a" stroke-width="7" fill="none" stroke-linecap="round"/><path d="M114 134 C134 114,154 126,172 108" stroke="#2f2a2a" stroke-width="7" fill="none" stroke-linecap="round"/><path d="M30 30 C42 22,52 22,64 30" stroke="#2f2a2a" fill="none" stroke-width="4"/><path d="M156 30 C168 22,178 22,190 30" stroke="#2f2a2a" fill="none" stroke-width="4"/></g>
  <text x="180" y="212" text-anchor="middle" font-family="Arial, sans-serif" font-size="20" font-weight="700" fill="#2f2a2a">Movimentos ativos</text>
</svg>