<svg xmlns="http://www.w3.org/2000/svg" width="512" height="512" viewBox="0 0 512 512" role="img" aria-label="Gráfico peso/IG - PIG/AIG/GIG por percentil - 0 pontos">
  <rect x="8" y="8" width="496" height="496" rx="28" fill="#ffffff" stroke="#263238" stroke-width="4"/>
  <text x="256" y="46" text-anchor="middle" font-family="Arial, Helvetica, sans-serif" font-size="24" font-weight="700" fill="#263238">Gráfico peso/IG</text>
  <text x="256" y="78" text-anchor="middle" font-family="Arial, Helvetica, sans-serif" font-size="18" fill="#455a64">PIG/AIG/GIG por percentil</text>
  <g stroke="#263238" stroke-width="7" fill="none" stroke-linecap="round" stroke-linejoin="round"><path d="M95 345 L420 345"/><path d="M95 345 L95 120"/>
<path d="M115 300 C180 260 275 230 400 210"/>
<path d="M115 235 C190 205 280 175 400 150"/>
<path d="M115 180 C190 150 285 125 400 110"/>
<circle cx="282" cy="205" r="12" fill="#263238" stroke="none"/>
<text x="112" y="326" font-family="Arial" font-size="18" fill="#263238" stroke="none">P10</text>
<text x="112" y="215" font-family="Arial" font-size="18" fill="#263238" stroke="none">P50</text>
<text x="112" y="158" font-family="Arial" font-size="18" fill="#263238" stroke="none">P90</text></g>
  <rect x="176" y="422" width="160" height="54" rx="16" fill="#f5f5f5" stroke="#263238" stroke-width="3"/>
  <text x="256" y="459" text-anchor="middle" font-family="Arial, Helvetica, sans-serif" font-size="28" font-weight="700" fill="#263238">0 pts</text>
  <text x="256" y="496" text-anchor="middle" font-family="Arial, Helvetica, sans-serif" font-size="12" fill="#607d8b">INTERGROWTH</text>
</svg>